# xmcd
#
# Track frame offsets:
#	150
#	19285
#	53850
#	91755
#	119082
#	148415
#	174512
#	197152
#
# Disc length: 3033 seconds
#
# Revision: 1
# Processed by: cddbd v1.5.1PL0 Copyright (c) Steve Scherf et al.
# Submitted via: audiograbber 1.83.01
#
DISCID=750bd708
DTITLE=Buck Hill - Capital Hill
DYEAR=1989
DGENRE=Jazz
TTITLE0=Tenor Madness
TTITLE1=Chelsea Bridge
TTITLE2=Stompin' At The Savoy
TTITLE3=Jazz Ballad
TTITLE4=On the Trail
TTITLE5=Someone To Watch Over Me
TTITLE6=Hail To The Redskins
TTITLE7=Vierd Blues
EXTD=YEAR: 1989
EXTT0=
EXTT1=
EXTT2=
EXTT3=
EXTT4=
EXTT5=
EXTT6=
EXTT7=
PLAYORDER=
